<svg width="62" height="64" viewBox="0 0 62 64" fill="none" xmlns="http://www.w3.org/2000/svg">
<path fill-rule="evenodd" clip-rule="evenodd" d="M50.7775 17.7536C47.949 13.7256 43.2344 11.3088 37.1998 10.906C37.3883 10.3019 37.3884 9.69765 37.3884 9.09346C37.3884 7.88506 37.0112 6.67667 36.634 5.66968C44.7431 5.87108 51.7204 9.69766 55.4921 15.7396C53.6063 15.7396 52.0976 16.5452 50.7775 17.7536ZM24.5647 14.1284C23.4333 12.7186 22.6789 10.906 22.6789 9.09346V8.89206C17.3986 11.5102 12.8726 15.7396 9.47816 20.7746C11.1754 21.3788 12.6841 22.7886 13.627 24.3998C13.8155 23.997 14.0041 23.5942 14.3813 23.1914C16.6443 19.7676 19.8502 16.7466 23.8104 14.5312C23.927 14.4068 24.0435 14.3592 24.2046 14.2936C24.3041 14.2529 24.4207 14.2054 24.5647 14.1284ZM9.85531 35.6781C9.10099 35.8795 8.15808 36.0809 7.21517 36.0809C6.27226 36.0809 5.32935 35.8795 4.57502 35.4767C4.38643 39.1019 4.7636 42.5257 6.46084 46.3523C7.40375 48.5676 8.72383 50.3802 10.2325 51.9914C10.9868 50.1788 12.1183 48.769 13.8156 47.9634C12.8726 46.755 12.1183 45.5467 11.364 44.1369C10.2325 41.5187 9.66673 38.4977 9.85531 35.6781ZM25.1305 53.804C24.9419 53.804 24.8005 53.7537 24.659 53.7033C24.5176 53.653 24.3762 53.6026 24.1876 53.6026C24.1876 53.7837 24.2257 53.9647 24.2675 54.1641C24.319 54.4082 24.3762 54.6797 24.3762 55.0124C24.3762 56.4222 23.999 57.832 23.2447 59.0404C28.525 59.846 34.5596 59.0404 40.2171 56.4222C39.0856 55.2138 38.3313 53.4012 38.1427 51.5886C33.8053 53.6026 29.0907 54.4082 25.1305 53.804ZM53.7948 31.0459C54.3606 31.2473 54.9263 31.4487 55.6807 31.4487C56.8122 31.4487 57.9436 31.0459 58.8866 30.6431C58.5094 34.8725 57.0007 39.9075 53.7948 44.7411C53.512 45.1439 53.1819 45.5467 52.8519 45.9495C52.5219 46.3522 52.1919 46.755 51.909 47.1578C51.1547 45.5466 49.8348 44.1369 48.1375 43.5327C48.3261 43.3313 48.5147 43.0795 48.7033 42.8278C48.8919 42.576 49.0805 42.3243 49.269 42.1229C51.909 38.2963 53.4177 34.4697 53.7948 31.0459Z" fill="#666666"/>
<path fill-rule="evenodd" clip-rule="evenodd" d="M0.123657 27.6883C0.123657 23.0305 3.32547 19.4314 7.46901 19.4314C11.6125 19.4314 14.8144 23.0305 14.8144 27.6883C14.8144 32.346 11.6125 35.9452 7.46901 35.9452C3.32547 35.9452 0.123657 32.346 0.123657 27.6883ZM2.38376 27.6883C2.38376 30.864 4.64387 33.4046 7.46901 33.4046C10.2942 33.4046 12.5543 30.864 12.5543 27.6883C12.5543 24.5126 10.2942 21.972 7.46901 21.972C4.64387 21.972 2.38376 24.5126 2.38376 27.6883Z" fill="#191919"/>
<path d="M6.73453 34.5687C9.57424 34.5687 11.8763 31.7961 11.8763 28.376C11.8763 24.9559 9.57424 22.1833 6.73453 22.1833C3.89482 22.1833 1.59277 24.9559 1.59277 28.376C1.59277 31.7961 3.89482 34.5687 6.73453 34.5687Z" fill="#9999FF"/>
<path fill-rule="evenodd" clip-rule="evenodd" d="M8.93811 55.8994C8.93811 51.6298 12.1399 48.3306 16.2835 48.3306C20.427 48.3306 23.6288 51.6298 23.6288 55.8994C23.6288 60.169 20.427 63.4682 16.2835 63.4682C12.1399 63.4682 8.93811 60.169 8.93811 55.8994ZM11.1982 55.8994C11.1982 58.8105 13.4583 61.1393 16.2835 61.1393C19.1086 61.1393 21.3687 58.8105 21.3687 55.8994C21.3687 52.9883 19.1086 50.6594 16.2835 50.6594C13.4583 50.6594 11.1982 52.9883 11.1982 55.8994Z" fill="#191919"/>
<path d="M17.0182 60.7155C19.8579 60.7155 22.16 58.5591 22.16 55.899C22.16 53.2389 19.8579 51.0825 17.0182 51.0825C14.1785 51.0825 11.8765 53.2389 11.8765 55.899C11.8765 58.5591 14.1785 60.7155 17.0182 60.7155Z" fill="#9999FF"/>
<path fill-rule="evenodd" clip-rule="evenodd" d="M22.1598 9.11024C22.1598 4.06437 25.3616 0.165283 29.5052 0.165283C33.6487 0.165283 36.8505 4.06437 36.8505 9.11024C36.8505 14.1561 33.6487 18.0552 29.5052 18.0552C25.3616 18.0552 22.1598 14.1561 22.1598 9.11024ZM24.4199 9.11024C24.4199 12.5506 26.68 15.3029 29.5052 15.3029C32.3303 15.3029 34.5904 12.5506 34.5904 9.11024C34.5904 5.66987 32.3303 2.91758 29.5052 2.91758C26.68 2.91758 24.4199 5.66987 24.4199 9.11024Z" fill="#191919"/>
<path d="M30.2397 15.303C33.0794 15.303 35.3814 12.5305 35.3814 9.11038C35.3814 5.69027 33.0794 2.91772 30.2397 2.91772C27.3999 2.91772 25.0979 5.69027 25.0979 9.11038C25.0979 12.5305 27.3999 15.303 30.2397 15.303Z" fill="#9999FF"/>
<path fill-rule="evenodd" clip-rule="evenodd" d="M48.6031 24.2478C48.6031 19.9782 51.4847 16.679 55.2139 16.679C58.9431 16.679 61.8248 19.9782 61.8248 24.2478C61.8248 28.5173 58.9431 31.8166 55.2139 31.8166C51.4847 31.8166 48.6031 28.5173 48.6031 24.2478ZM50.6371 24.2478C50.6371 27.1588 52.6712 29.4877 55.2139 29.4877C57.7565 29.4877 59.7907 27.1588 59.7907 24.2478C59.7907 21.3367 57.7565 19.0078 55.2139 19.0078C52.6712 19.0078 50.6371 21.3367 50.6371 24.2478Z" fill="#191919"/>
<path d="M55.2139 29.0646C58.0536 29.0646 60.3556 26.6001 60.3556 23.56C60.3556 20.5199 58.0536 18.0554 55.2139 18.0554C52.3742 18.0554 50.0721 20.5199 50.0721 23.56C50.0721 26.6001 52.3742 29.0646 55.2139 29.0646Z" fill="#9999FF"/>
<path fill-rule="evenodd" clip-rule="evenodd" d="M38.3197 51.0828C38.3197 46.4251 41.5215 42.8259 45.6651 42.8259C49.8086 42.8259 53.0104 46.4251 53.0104 51.0828C53.0104 55.7405 49.8086 59.3397 45.6651 59.3397C41.5215 59.3397 38.3197 55.7405 38.3197 51.0828ZM40.5798 51.0828C40.5798 54.2585 42.8399 56.7991 45.6651 56.7991C48.4902 56.7991 50.7503 54.2585 50.7503 51.0828C50.7503 47.9071 48.4902 45.3665 45.6651 45.3665C42.8399 45.3665 40.5798 47.9071 40.5798 51.0828Z" fill="#191919"/>
<path d="M44.9304 56.5875C47.7702 56.5875 50.0722 54.1231 50.0722 51.083C50.0722 48.0429 47.7702 45.5784 44.9304 45.5784C42.0907 45.5784 39.7887 48.0429 39.7887 51.083C39.7887 54.1231 42.0907 56.5875 44.9304 56.5875Z" fill="#9999FF"/>
</svg>
