<svg width="286" height="150" viewBox="0 0 286 150" fill="none" xmlns="http://www.w3.org/2000/svg">
<path fill-rule="evenodd" clip-rule="evenodd" d="M187.778 65.7536C184.949 61.7256 180.234 59.3088 174.2 58.906C174.388 58.3019 174.388 57.6977 174.388 57.0935C174.388 55.8851 174.011 54.6767 173.634 53.6697C181.743 53.8711 188.72 57.6977 192.492 63.7396C190.606 63.7396 189.098 64.5452 187.778 65.7536ZM161.565 62.1284C160.433 60.7186 159.679 58.906 159.679 57.0935V56.8921C154.399 59.5102 149.873 63.7396 146.478 68.7746C148.175 69.3788 149.684 70.7886 150.627 72.3998C150.816 71.997 151.004 71.5942 151.381 71.1914C153.644 67.7676 156.85 64.7466 160.81 62.5312C160.927 62.4068 161.044 62.3592 161.205 62.2936C161.304 62.2529 161.421 62.2054 161.565 62.1284ZM146.855 83.6781C146.101 83.8795 145.158 84.0809 144.215 84.0809C143.272 84.0809 142.329 83.8795 141.575 83.4767C141.386 87.1019 141.764 90.5257 143.461 94.3523C144.404 96.5676 145.724 98.3802 147.232 99.9914C147.987 98.1788 149.118 96.769 150.816 95.9634C149.873 94.755 149.118 93.5467 148.364 92.1369C147.232 89.5187 146.667 86.4977 146.855 83.6781ZM162.131 101.804C161.942 101.804 161.8 101.754 161.659 101.703C161.518 101.653 161.376 101.603 161.188 101.603C161.188 101.784 161.226 101.965 161.268 102.164C161.319 102.408 161.376 102.68 161.376 103.012C161.376 104.422 160.999 105.832 160.245 107.04C165.525 107.846 171.56 107.04 177.217 104.422C176.086 103.214 175.331 101.401 175.143 99.5886C170.805 101.603 166.091 102.408 162.131 101.804ZM190.795 79.0459C191.361 79.2473 191.926 79.4487 192.681 79.4487C193.812 79.4487 194.944 79.0459 195.887 78.6431C195.509 82.8725 194.001 87.9075 190.795 92.7411C190.512 93.1439 190.182 93.5467 189.852 93.9495C189.522 94.3522 189.192 94.755 188.909 95.1578C188.155 93.5466 186.835 92.1369 185.138 91.5327C185.326 91.3313 185.515 91.0795 185.703 90.8278C185.892 90.576 186.08 90.3243 186.269 90.1229C188.909 86.2963 190.418 82.4697 190.795 79.0459Z" fill="#666666"/>
<path fill-rule="evenodd" clip-rule="evenodd" d="M137.124 75.6882C137.124 71.0304 140.325 67.4313 144.469 67.4313C148.613 67.4313 151.814 71.0304 151.814 75.6882C151.814 80.3459 148.613 83.945 144.469 83.945C140.325 83.945 137.124 80.3459 137.124 75.6882ZM139.384 75.6882C139.384 78.8639 141.644 81.4045 144.469 81.4045C147.294 81.4045 149.554 78.8639 149.554 75.6882C149.554 72.5124 147.294 69.9719 144.469 69.9719C141.644 69.9719 139.384 72.5124 139.384 75.6882Z" fill="#191919"/>
<path d="M143.735 82.5685C146.574 82.5685 148.876 79.7959 148.876 76.3758C148.876 72.9557 146.574 70.1832 143.735 70.1832C140.895 70.1832 138.593 72.9557 138.593 76.3758C138.593 79.7959 140.895 82.5685 143.735 82.5685Z" fill="#9999FF"/>
<path fill-rule="evenodd" clip-rule="evenodd" d="M145.938 103.899C145.938 99.6295 149.14 96.3303 153.283 96.3303C157.427 96.3303 160.629 99.6295 160.629 103.899C160.629 108.169 157.427 111.468 153.283 111.468C149.14 111.468 145.938 108.169 145.938 103.899ZM148.198 103.899C148.198 106.81 150.458 109.139 153.283 109.139C156.109 109.139 158.369 106.81 158.369 103.899C158.369 100.988 156.109 98.6592 153.283 98.6592C150.458 98.6592 148.198 100.988 148.198 103.899Z" fill="#191919"/>
<path d="M154.018 108.715C156.858 108.715 159.16 106.559 159.16 103.899C159.16 101.239 156.858 99.0825 154.018 99.0825C151.178 99.0825 148.876 101.239 148.876 103.899C148.876 106.559 151.178 108.715 154.018 108.715Z" fill="#9999FF"/>
<path fill-rule="evenodd" clip-rule="evenodd" d="M159.16 57.1101C159.16 52.0642 162.362 48.1652 166.505 48.1652C170.649 48.1652 173.851 52.0642 173.851 57.1101C173.851 62.156 170.649 66.0551 166.505 66.0551C162.362 66.0551 159.16 62.156 159.16 57.1101ZM161.42 57.1101C161.42 60.5505 163.68 63.3028 166.505 63.3028C169.33 63.3028 171.59 60.5505 171.59 57.1101C171.59 53.6697 169.33 50.9175 166.505 50.9175C163.68 50.9175 161.42 53.6697 161.42 57.1101Z" fill="#191919"/>
<path d="M167.24 63.3029C170.079 63.3029 172.381 60.5303 172.381 57.1102C172.381 53.6901 170.079 50.9175 167.24 50.9175C164.4 50.9175 162.098 53.6901 162.098 57.1102C162.098 60.5303 164.4 63.3029 167.24 63.3029Z" fill="#9999FF"/>
<path fill-rule="evenodd" clip-rule="evenodd" d="M185.603 72.2477C185.603 67.9781 188.485 64.6789 192.214 64.6789C195.943 64.6789 198.825 67.9781 198.825 72.2477C198.825 76.5173 195.943 79.8165 192.214 79.8165C188.485 79.8165 185.603 76.5173 185.603 72.2477ZM187.637 72.2477C187.637 75.1588 189.671 77.4876 192.214 77.4876C194.757 77.4876 196.791 75.1588 196.791 72.2477C196.791 69.3366 194.757 67.0078 192.214 67.0078C189.671 67.0078 187.637 69.3366 187.637 72.2477Z" fill="#191919"/>
<path d="M192.214 77.0644C195.054 77.0644 197.356 74.5999 197.356 71.5598C197.356 68.5197 195.054 66.0552 192.214 66.0552C189.374 66.0552 187.072 68.5197 187.072 71.5598C187.072 74.5999 189.374 77.0644 192.214 77.0644Z" fill="#9999FF"/>
<path fill-rule="evenodd" clip-rule="evenodd" d="M175.32 99.0827C175.32 94.425 178.522 90.8259 182.665 90.8259C186.809 90.8259 190.01 94.425 190.01 99.0827C190.01 103.74 186.809 107.34 182.665 107.34C178.522 107.34 175.32 103.74 175.32 99.0827ZM177.58 99.0827C177.58 102.258 179.84 104.799 182.665 104.799C185.49 104.799 187.75 102.258 187.75 99.0827C187.75 95.907 185.49 93.3664 182.665 93.3664C179.84 93.3664 177.58 95.907 177.58 99.0827Z" fill="#191919"/>
<path d="M181.93 104.587C184.77 104.587 187.072 102.123 187.072 99.0828C187.072 96.0427 184.77 93.5782 181.93 93.5782C179.091 93.5782 176.789 96.0427 176.789 99.0828C176.789 102.123 179.091 104.587 181.93 104.587Z" fill="#9999FF"/>
<path fill-rule="evenodd" clip-rule="evenodd" d="M129.411 90.9854L124.086 87.9189C122.249 91.3942 120.413 93.8473 118.944 95.6872C117.291 97.3226 115.455 98.5492 113.068 99.5713C110.68 100.593 108.293 101.002 105.906 101.002C100.764 101.002 96.5406 99.1625 93.0515 95.0739C89.5625 91.1898 87.9098 86.0791 87.7261 79.7418H131.247C131.247 72.3824 129.411 66.2496 125.922 61.3434C120.964 54.3928 114.353 50.9175 106.09 50.9175C98.1933 50.9175 91.7661 54.3928 86.9916 61.1389C83.1353 66.454 81.299 72.5869 81.299 79.333C81.299 86.4879 83.5026 93.0296 87.9098 98.7536C92.317 104.478 98.5605 107.34 106.457 107.34C109.946 107.34 113.251 106.726 116.006 105.5C118.76 104.273 121.331 102.433 123.535 100.185C125.738 97.7315 127.758 94.6651 129.411 90.9854ZM120.413 64.6142C122.066 66.8629 123.168 69.7249 124.086 73.4046H87.9098C89.1952 68.4983 91.0315 64.8186 93.6024 62.3655C97.0915 58.8902 101.131 57.2548 105.906 57.2548C108.844 57.2548 111.599 57.8681 114.169 59.2991C116.74 60.5256 118.76 62.3655 120.413 64.6142Z" fill="#666666"/>
<path d="M67.2943 46.5863L62.0847 51.8481C58.3636 47.8006 54.2704 44.9673 49.9911 42.9436C45.5257 40.9198 41.2464 39.908 37.1531 39.908C31.9435 39.908 27.1061 41.3246 22.2686 44.1578C17.6172 46.9911 13.8961 50.6338 11.2913 55.4908C8.68649 60.1454 7.38409 65.2048 7.38409 70.4665C7.38409 75.9306 8.68649 80.99 11.4773 85.847C14.0821 90.704 17.8033 94.5491 22.6407 97.3823C27.2921 100.216 32.5017 101.632 38.0834 101.632C44.9675 101.632 50.7353 99.6084 55.3867 95.3586C60.0381 91.1087 62.829 85.847 63.7593 79.1686H42.5488V72.2879H71.0155C71.0155 83.4185 67.8525 92.323 61.8987 98.7989C55.9449 105.275 47.7584 108.715 37.7113 108.715C25.4316 108.715 15.7566 104.263 8.68649 95.1562C3.10479 88.0731 0.5 80.1805 0.5 70.8713C0.5 63.9905 1.98845 57.7169 5.15141 51.8481C8.31438 45.9792 12.5937 41.3246 18.1754 38.0866C23.757 34.8486 29.8969 33.0272 36.781 33.0272C42.3627 33.0272 47.7584 34.0391 52.5958 36.2652C57.6194 38.289 62.4569 41.7293 67.2943 46.5863Z" fill="#666666"/>
<path d="M210.605 102H203.681L223.709 47.4545H230.527L250.556 102H243.631L227.331 56.0838H226.905L210.605 102ZM213.162 80.6932H241.074V86.5526H213.162V80.6932ZM265.657 47.4545V102H259.052V47.4545H265.657Z" fill="#666666"/>
</svg>
